PathFileType	4	(X/Y/Z)	Walk10.trc
DataRate	CameraRate	NumFrames	NumMarkers	Units	OrigDataRate	OrigDataStartFrame	OrigNumFrames
200.000000	200.000000	4	59	mm	200.000000	459	536
Frame#	Times		C7		T10		RBack		LPSI		RPSI		RCAR		LElbowM		LLFC		LTH1		LBHD		RWRR		LUA1		CLAV		RUA1		RElbowM		RFA1		LFA1		RTH3		LCAR		LWRU		RTH4		RTH2		RACR1		LACR1		STRN		RTB4		LWRR		RTB3		RMT1		RWRU		RTB1		RToe		RCAL		RFHD		RLFC		RMT5		RBHD		LFHD		RTB2		LElbow		LTB3		LTH4		LTH3		RTH1		RMMAL		RLMAL		LTH2		RElbow		LTB2		LCAL		LMT1		LLMAL		RASI		LASI		LTB4		LMT5		LMMAL		LToe		LTB1
			X1	Y1	Z1	X2	Y2	Z2	X3	Y3	Z3	X4	Y4	Z4	X5	Y5	Z5	X6	Y6	Z6	X7	Y7	Z7	X8	Y8	Z8	X9	Y9	Z9	X10	Y10	Z10	X11	Y11	Z11	X12	Y12	Z12	X13	Y13	Z13	X14	Y14	Z14	X15	Y15	Z15	X16	Y16	Z16	X17	Y17	Z17	X18	Y18	Z18	X19	Y19	Z19	X20	Y20	Z20	X21	Y21	Z21	X22	Y22	Z22	X23	Y23	Z23	X24	Y24	Z24	X25	Y25	Z25	X26	Y26	Z26	X27	Y27	Z27	X28	Y28	Z28	X29	Y29	Z29	X30	Y30	Z30	X31	Y31	Z31	X32	Y32	Z32	X33	Y33	Z33	X34	Y34	Z34	X35	Y35	Z35	X36	Y36	Z36	X37	Y37	Z37	X38	Y38	Z38	X39	Y39	Z39	X40	Y40	Z40	X41	Y41	Z41	X42	Y42	Z42	X43	Y43	Z43	X44	Y44	Z44	X45	Y45	Z45	X46	Y46	Z46	X47	Y47	Z47	X48	Y48	Z48	X49	Y49	Z49	X50	Y50	Z50	X51	Y51	Z51	X52	Y52	Z52	X53	Y53	Z53	X54	Y54	Z54	X55	Y55	Z55	X56	Y56	Z56	X57	Y57	Z57	X58	Y58	Z58	X59	Y59	Z59

459	2.295	755.03	1335.7	-17.495	744.13	1067	-5.4452	745.77	1243.1	120.02	732.12	879.28	-41.52	721.01	889.84	58.605	1011.8	761.37	269.89	764.17	948.96	-190.04	984.14	450.55	-120.87	924.49	737.84	-177.66	771	1469.4	-88.956	1016.9	802.74	220.28	822.4	1093.8	-256.83	886.01	1266.9	-15.979	872.28	1138.3	221.17	826.7	949.7	192.51	905.77	870.67	266.38	781.84	860.04	-298.44	813.39	536.41	184.37	836.49	693.85	-343.72	791.8	737.18	-323.6	826.46	629.21	203.92	899.88	626.8	177.25	843.12	1288.8	135.42	829.48	1267.5	-181.39	956.09	1166.4	-18.598	686.21	257.64	88.613	860.77	730.26	-297.74	623.19	189.4	79.823	574.83	65.179	44.459	954.69	770.98	245.69	757.11	315.58	92.415	593.63	26.957	52.214	485.62	187.49	83.153	945.17	1500	11.733	807.85	437.16	175.34	550.83	66.748	99.868	767.96	1475.1	34.494	942.13	1491.4	-65.801	662.52	276.81	152.93	777.8	978.31	-261.82	1052.6	163.83	-28.662	955.88	652.57	-152.47	983.42	564.08	-129.65	840.87	715.4	225.35	549.98	158.97	37.89	534.33	155.91	116.01	1011.1	683.37	-115.44	873.31	994.99	263.54	1014.3	248.41	-103.05	977.57	27.258	-31.483	1131.5	48.251	-22.58	1019.6	60.562	-72.114	1004.4	875.48	131.96	796.7	841.01	-144.13	1035	253.71	-35.694	1108.9	28.323	-75.501	1037.8	67.325	5.5514	1187.6	25.038	-32.103	1033.7	345.82	-39.747
460	2.3	760.9	1336.9	-18.362	750.59	1068.2	-5.9642	751.74	1244.6	119.23	738.19	880.54	-41.798	727.26	890.49	58.435	1015.4	761.96	269.72	770.71	950.18	-190.37	986.88	450.93	-121.61	929.59	738.76	-178.34	776.93	1470.6	-89.868	1020.8	803.21	220.04	828.49	1095	-257.48	891.9	1268.2	-16.791	877.9	1139.8	220.42	831.57	951.42	191.77	910	871.94	265.97	788.59	861	-298.63	822.92	536.8	184.99	843.8	694.88	-343.6	799.01	738.13	-323.55	834.96	629.85	203.93	908.44	628.04	177.4	849.1	1290.3	134.51	835.32	1268.8	-182.16	962.15	1167.8	-19.539	695.84	259.1	90.029	867.97	731.48	-297.7	631.81	191.74	81.003	580.85	67.342	45.623	958.34	771.92	245.55	767.6	315.92	94.247	597.65	27.887	54.018	494.14	192.44	82.282	951.01	1501.2	10.937	818.21	437.59	176.34	555.92	69.691	100.54	773.79	1476.3	33.57	948.05	1492.6	-66.579	671.17	279.5	153.63	784.18	979.38	-262.21	1053.4	163.69	-29.079	960.32	653.22	-153.25	987.05	564.46	-130.34	848.43	716.32	224.86	558.61	162.16	38.177	541.58	159.96	116.1	1015.8	683.54	-116.18	878.33	996.47	262.89	1015.7	248.44	-103.59	977.57	27.344	-31.637	1131.6	48.096	-22.811	1019.7	60.527	-72.366	1013.4	875.82	131.73	805.02	841.4	-144.73	1036.4	253.66	-36.226	1108.8	28.127	-75.75	1037.9	67.385	5.284	1187.6	24.625	-32.176	1035.7	345.79	-40.407
461	2.305	766.77	1338.1	-19.199	757.07	1069.3	-6.4858	757.69	1246	118.46	744.2	881.77	-42.11	733.47	891.14	58.21	1019	762.54	269.59	777.23	951.39	-190.72	989.46	451.28	-122.32	934.61	739.63	-179.03	782.84	1471.8	-90.748	1024.6	803.69	219.83	834.57	1096.2	-258.12	897.78	1269.5	-17.565	883.49	1141.3	219.71	836.39	953.1	191.09	914.22	873.19	265.58	795.37	861.94	-298.84	832.46	537.22	185.6	851.19	695.93	-343.49	806.29	739.07	-323.52	843.47	630.53	203.92	917.01	629.33	177.55	855.04	1291.7	133.63	841.17	1270	-182.9	968.19	1169.2	-20.433	705.7	260.57	91.401	875.26	732.72	-297.68	640.7	194.04	82.146	587.42	69.543	46.905	961.97	772.84	245.42	778.24	316.32	96.038	602.34	28.899	56.011	502.92	197.14	81.423	956.84	1502.4	10.161	828.63	438.07	177.29	561.56	72.699	101.3	779.6	1477.5	32.676	953.95	1493.9	-67.337	680.07	282.17	154.3	790.55	980.45	-262.61	1054.1	163.57	-29.492	964.64	653.82	-154.02	990.54	564.79	-131.03	855.97	717.26	224.37	567.54	165.23	38.456	549.18	163.9	116.17	1020.4	683.64	-116.95	883.32	997.92	262.28	1017	248.48	-104.12	977.55	27.411	-31.77	1131.6	47.999	-23.034	1019.9	60.496	-72.602	1022.1	876.19	131.55	813.76	841.79	-145.35	1037.7	253.62	-36.75	1108.7	27.979	-75.988	1038.1	67.454	5.0286	1187.6	24.316	-32.25	1037.7	345.76	-41.058
462	2.31	772.63	1339.2	-20.007	763.54	1070.4	-7.0107	763.6	1247.3	117.7	750.15	882.98	-42.457	739.62	891.76	57.932	1022.5	763.12	269.48	783.73	952.56	-191.08	991.88	451.6	-123.01	939.55	740.44	-179.72	788.74	1472.9	-91.594	1028.4	804.16	219.66	840.63	1097.4	-258.75	903.64	1270.8	-18.3	889.04	1142.7	219.03	841.19	954.74	190.45	918.42	874.43	265.24	802.16	862.86	-299.06	842.01	537.69	186.17	858.66	696.98	-343.39	813.62	740	-323.5	851.97	631.24	203.91	925.57	630.66	177.71	860.95	1293.1	132.8	847.03	1271.2	-183.61	974.2	1170.5	-21.278	715.77	262.05	92.715	882.61	733.98	-297.67	649.87	196.3	83.238	594.56	71.758	48.302	965.6	773.73	245.31	789.04	316.78	97.766	607.75	29.984	58.184	511.97	201.55	80.579	962.66	1503.6	9.4076	839.1	438.6	178.18	567.78	75.745	102.15	785.41	1478.6	31.815	959.85	1495.1	-68.073	689.21	284.8	154.92	796.91	981.5	-263.02	1054.7	163.45	-29.899	968.85	654.37	-154.77	993.89	565.07	-131.71	863.5	718.23	223.88	576.77	168.15	38.723	557.14	167.71	116.22	1024.9	683.67	-117.73	888.29	999.35	261.71	1018.1	248.51	-104.63	977.51	27.46	-31.884	1131.6	47.951	-23.248	1020	60.47	-72.818	1030.3	876.56	131.41	822.92	842.16	-145.99	1038.9	253.57	-37.262	1108.6	27.87	-76.21	1038.2	67.53	4.7869	1187.5	24.095	-32.319	1039.5	345.72	-41.698
